<svg width="342" height="104" viewBox="0 0 342 104" fill="none" xmlns="http://www.w3.org/2000/svg">
<path d="M102.956 22.4418H17.8589C15.8855 22.4418 14.2871 20.7932 14.2871 18.7578C14.2871 16.7224 15.8855 15.0738 17.8589 15.0738H103.581C105.555 15.0738 107.153 13.4252 107.153 11.3898C107.153 5.28584 102.356 0.337753 96.4379 0.337753H14.2871C6.39571 0.337753 0 6.93444 0 15.0738V88.754C0 96.8934 6.39571 103.49 14.2871 103.49H102.956C109.211 103.49 114.297 98.5328 114.297 92.438V33.4939C114.297 27.3991 109.211 22.4418 102.956 22.4418ZM92.8661 70.334C88.9216 70.334 85.7226 67.0345 85.7226 62.966C85.7226 58.8974 88.9216 55.5979 92.8661 55.5979C96.8107 55.5979 100.01 58.8974 100.01 62.966C100.01 67.0345 96.8107 70.334 92.8661 70.334Z" fill="#241F31"/>
<path d="M140.68 99V4.46875H159.479V38.2529H168.395V4.46875H187.193V99H168.395V56.1387H159.479V99H140.68Z" fill="#241F31"/>
<path d="M195.572 99V4.46875H220.548C225.776 4.46875 229.912 5.63249 232.955 7.95996C236.035 10.2874 238.237 13.5996 239.562 17.8965C240.887 22.1934 241.549 27.3138 241.549 33.2578C241.549 38.987 240.994 43.9821 239.884 48.2432C238.774 52.4684 236.787 55.7448 233.922 58.0723C231.093 60.3997 227.065 61.5635 221.837 61.5635H214.156V99H195.572ZM214.156 44.5908H215.231C218.74 44.5908 220.888 43.6061 221.676 41.6367C222.464 39.6673 222.858 36.7669 222.858 32.9355C222.858 29.3548 222.464 26.5977 221.676 24.6641C220.924 22.6947 219.116 21.71 216.251 21.71H214.156V44.5908Z" fill="#241F31"/>
<path d="M243.375 99L252.506 4.46875H284.571L293.541 99H275.655L274.313 83.7461H262.926L261.744 99H243.375ZM264.269 68.6533H272.862L268.727 20.582H267.867L264.269 68.6533Z" fill="#241F31"/>
<path d="M308.204 99V67.9014L293.111 4.46875H311.857L317.12 36.4805L322.384 4.46875H341.075L326.036 67.9014V99H308.204Z" fill="#241F31"/>
</svg>
